# xmcd CD database file
#
# Track frame offsets:
#	150
#	19824
#	37841
#	55939
#	73544
#	92843
#	107679
#	120785
#	139090
#	161458
#	183843
#	202249
#	217870
#
# Disc length: 3065 seconds
#
# Revision: 0
# Processed by: cddbd v1.5.2PL0 Copyright (c) Steve Scherf et al.
# Submitted via: CDex 1.70beta2
#
DISCID=a80bf70d
DTITLE=Sleepy Eddie James - Living Like A King
DYEAR=2007
DGENRE=Jazz
TTITLE0=she loves to shop
TTITLE1=motion of the ocean
TTITLE2=thrill is gone
TTITLE3=you ain't got no class
TTITLE4=these last two dollars
TTITLE5=living like a king
TTITLE6=sissy strut
TTITLE7=sleepy's sissy strut
TTITLE8=what will it take
TTITLE9=my first heart attack
TTITLE10=nothin' honey
TTITLE11=i really don't mind
TTITLE12=work in progress
EXTD=YEAR: 2007
EXTT0=
EXTT1=
EXTT2=
EXTT3=
EXTT4=
EXTT5=
EXTT6=
EXTT7=
EXTT8=
EXTT9=
EXTT10=
EXTT11=
EXTT12=
PLAYORDER=
